<svg width="31" height="25" viewBox="0 0 31 25" fill="none" xmlns="http://www.w3.org/2000/svg">
<path d="M13.3864 9.02778H11.9773V7.63889C11.9773 7.27053 11.8288 6.91726 11.5646 6.6568C11.3003 6.39633 10.9419 6.25 10.5682 6.25C10.1945 6.25 9.83606 6.39633 9.5718 6.6568C9.30755 6.91726 9.15909 7.27053 9.15909 7.63889V9.02778H7.75C7.37629 9.02778 7.01788 9.17411 6.75362 9.43457C6.48937 9.69504 6.34091 10.0483 6.34091 10.4167C6.34091 10.785 6.48937 11.1383 6.75362 11.3988C7.01788 11.6592 7.37629 11.8056 7.75 11.8056H9.15909V13.1944C9.15909 13.5628 9.30755 13.9161 9.5718 14.1765C9.83606 14.437 10.1945 14.5833 10.5682 14.5833C10.9419 14.5833 11.3003 14.437 11.5646 14.1765C11.8288 13.9161 11.9773 13.5628 11.9773 13.1944V11.8056H13.3864C13.7601 11.8056 14.1185 11.6592 14.3827 11.3988C14.647 11.1383 14.7955 10.785 14.7955 10.4167C14.7955 10.0483 14.647 9.69504 14.3827 9.43457C14.1185 9.17411 13.7601 9.02778 13.3864 9.02778ZM30.9014 12.0139L30.8168 11.8611C30.7925 11.7924 30.7594 11.727 30.7182 11.6667L27.3364 7.22222C26.9426 6.70474 26.432 6.28472 25.845 5.99544C25.2581 5.70616 24.6108 5.55556 23.9545 5.55556H21.1364V4.16667C21.1364 3.0616 20.691 2.00179 19.8982 1.22039C19.1055 0.438987 18.0302 0 16.9091 0H4.22727C3.10613 0 2.03091 0.438987 1.23814 1.22039C0.445372 2.00179 0 3.0616 0 4.16667V19.4444C0 19.8128 0.148457 20.1661 0.412713 20.4265C0.676969 20.687 1.03538 20.8333 1.40909 20.8333H2.81818C2.81818 21.9384 3.26355 22.9982 4.05632 23.7796C4.84909 24.561 5.92431 25 7.04545 25C8.1666 25 9.24182 24.561 10.0346 23.7796C10.8274 22.9982 11.2727 21.9384 11.2727 20.8333H19.7273C19.7273 21.9384 20.1726 22.9982 20.9654 23.7796C21.7582 24.561 22.8334 25 23.9545 25C25.0757 25 26.1509 24.561 26.9437 23.7796C27.7364 22.9982 28.1818 21.9384 28.1818 20.8333H29.5909C29.9646 20.8333 30.323 20.687 30.5873 20.4265C30.8515 20.1661 31 19.8128 31 19.4444V12.5C30.997 12.3334 30.9636 12.1688 30.9014 12.0139ZM7.04545 22.2222C6.76676 22.2222 6.49433 22.1408 6.26261 21.9882C6.03088 21.8355 5.85027 21.6186 5.74362 21.3648C5.63697 21.111 5.60907 20.8318 5.66344 20.5624C5.71781 20.293 5.85201 20.0455 6.04908 19.8512C6.24614 19.657 6.49722 19.5247 6.77055 19.4711C7.04389 19.4175 7.32721 19.445 7.58469 19.5502C7.84217 19.6553 8.06224 19.8333 8.21707 20.0617C8.3719 20.2901 8.45455 20.5586 8.45455 20.8333C8.45455 21.2017 8.30609 21.555 8.04183 21.8154C7.77758 22.0759 7.41917 22.2222 7.04545 22.2222ZM18.3182 18.0556H10.1736C9.77743 17.6259 9.29448 17.2826 8.75578 17.0477C8.21708 16.8128 7.63452 16.6914 7.04545 16.6914C6.45639 16.6914 5.87382 16.8128 5.33512 17.0477C4.79642 17.2826 4.31348 17.6259 3.91727 18.0556H2.81818V4.16667C2.81818 3.79831 2.96664 3.44504 3.23089 3.18457C3.49515 2.92411 3.85356 2.77778 4.22727 2.77778H16.9091C17.2828 2.77778 17.6412 2.92411 17.9055 3.18457C18.1697 3.44504 18.3182 3.79831 18.3182 4.16667V18.0556ZM21.1364 8.33333H23.9545C24.1733 8.33333 24.389 8.38353 24.5847 8.47996C24.7804 8.57639 24.9506 8.71639 25.0818 8.88889L26.7727 11.1111H21.1364V8.33333ZM23.9545 22.2222C23.6759 22.2222 23.4034 22.1408 23.1717 21.9882C22.94 21.8355 22.7594 21.6186 22.6527 21.3648C22.5461 21.111 22.5182 20.8318 22.5725 20.5624C22.6269 20.293 22.7611 20.0455 22.9582 19.8512C23.1552 19.657 23.4063 19.5247 23.6796 19.4711C23.953 19.4175 24.2363 19.445 24.4938 19.5502C24.7513 19.6553 24.9713 19.8333 25.1262 20.0617C25.281 20.2901 25.3636 20.5586 25.3636 20.8333C25.3636 21.2017 25.2152 21.555 24.9509 21.8154C24.6867 22.0759 24.3283 22.2222 23.9545 22.2222ZM28.1818 18.0556H27.0827C26.3329 17.2417 25.2872 16.753 24.1734 16.6957C23.0596 16.6385 21.968 17.0174 21.1364 17.75V13.8889H28.1818V18.0556Z" fill="currentColor"/>
</svg>
